<?xml version="1.0" encoding="utf-8"?>
<!-- Generator: Adobe Illustrator 16.0.2, SVG Export Plug-In . SVG Version: 6.00 Build 0)  -->
<!DOCTYPE svg PUBLIC "-//W3C//DTD SVG 1.1//EN" "http://www.w3.org/Graphics/SVG/1.1/DTD/svg11.dtd">
<svg version="1.1" id="Layer_1" xmlns="http://www.w3.org/2000/svg" xmlns:xlink="http://www.w3.org/1999/xlink" x="0px" y="0px"
	 width="14px" height="14px" viewBox="0 0 14 14" enable-background="new 0 0 14 14" xml:space="preserve">
<g>
	<g>
		<path fill="#9F9F9F" d="M13.808,12.914L7.898,7l5.904-5.91c0.248-0.25,0.248-0.652,0-0.901c-0.249-0.249-0.651-0.249-0.9,0
			l-5.904,5.91L1.091,0.187c-0.248-0.249-0.651-0.249-0.899,0c-0.249,0.249-0.249,0.652,0,0.901L6.099,7l-5.908,5.914
			c-0.249,0.248-0.249,0.652,0,0.9C0.315,13.939,0.479,14,0.642,14c0.162,0,0.325-0.061,0.449-0.186L6.999,7.9l5.909,5.914
			C13.032,13.939,13.194,14,13.357,14s0.326-0.061,0.45-0.186C14.056,13.566,14.056,13.162,13.808,12.914z"/>
	</g>
</g>
</svg>
