<?xml version="1.0" encoding="utf-8"?>
<!-- Generator: Adobe Illustrator 18.1.0, SVG Export Plug-In . SVG Version: 6.00 Build 0)  -->
<svg version="1.1" id="Layer_1" xmlns="http://www.w3.org/2000/svg" xmlns:xlink="http://www.w3.org/1999/xlink" x="0px" y="0px"
	 viewBox="0 0 22 14" enable-background="new 0 0 22 14" xml:space="preserve">
<g>
	<g>
		<path fill="#979797" d="M11,8.4L11,8.4c0.2,0,0.3,0,0.5-0.1l0,0c0,0,0,0,0,0L12,7.9L22,0c0,0-0.1,0-0.1,0H0.1c0,0-0.1,0-0.1,0
			l10.5,8.2C10.6,8.3,10.8,8.4,11,8.4z M0,1.1v11.6L7.5,7L0,1.1z M14.5,7l7.5,5.7V1.1L14.5,7z M12.1,8.9c-0.3,0.2-0.7,0.4-1.1,0.4
			c-0.4,0-0.8-0.1-1.1-0.4L8.2,7.6L0,13.9v0C0,13.9,0.1,14,0.1,14h21.8c0.1,0,0.1-0.1,0.1-0.1v0l-8.2-6.3L12.1,8.9z"/>
	</g>
</g>
</svg>
