<?xml version="1.0" encoding="utf-8"?>
<!-- Generator: Adobe Illustrator 18.1.0, SVG Export Plug-In . SVG Version: 6.00 Build 0)  -->
<svg version="1.1" id="Layer_1" xmlns="http://www.w3.org/2000/svg" xmlns:xlink="http://www.w3.org/1999/xlink" x="0px" y="0px"
	 viewBox="0 0 207 40" enable-background="new 0 0 207 40" xml:space="preserve">
<g>
	<g>
		<path fill="#E11B22" d="M25.4,19.4c-3.6-4.4-7.7-9-7.6-13.9c0-0.5,0-1,0.2-1.5c0.3-1.3,1.2-2.5,2.6-3.7c0.1-0.1,0.3-0.2,0.4-0.3
			C20.5,0,20,0,19.5,0c-0.8,0-1.5,0-2.3,0.1c-0.2,0.1-0.3,0.3-0.5,0.4c-3.6,3-3.8,6.2-2.2,9.5c1.2,2.5,3.3,5.1,5.6,7.8
			c3.6,4.4,7.7,9,7.6,13.9c0,0.5,0,1-0.2,1.6c-0.3,1.3-1.2,2.5-2.6,3.7c-0.8,0.5-1.7,1-2.6,1.6c-0.2,0.1-0.4,0.2-0.6,0.4
			c2.6-0.3,5-1.1,7.2-2.4c3.4-2.9,3.5-6,1.9-9.3C29.8,24.7,27.7,22.1,25.4,19.4z M18,30.7c-1.2-2.5-3.3-5.1-5.6-7.8
			c-3.6-4.4-7.7-9-7.6-13.9c0-0.5,0-1,0.2-1.5c0.2-0.6,0.5-1.3,0.9-1.9C2.2,9.2,0,14.1,0,19.5c0,10,7.5,18.2,17.2,19.4
			C19.5,36.3,19.3,33.5,18,30.7z M24.5,29c-1.2-2.5-3.3-5.1-5.6-7.8c-3.6-4.4-7.7-9-7.6-13.9c0-0.5,0-1,0.2-1.5
			C11.7,4.5,12.6,3.2,14,2c0.8-0.5,1.7-1,2.6-1.6c0.2-0.1,0.4-0.2,0.6-0.4c-2.6,0.3-5,1.1-7.2,2.4c-3.4,2.9-3.5,6-1.9,9.3
			c1.2,2.5,3.3,5.1,5.6,7.8c3.6,4.4,7.7,9,7.6,13.9c0,0.5,0,1-0.2,1.5c-0.3,1.3-1.2,2.5-2.6,3.7c-0.1,0.1-0.3,0.2-0.4,0.3
			c0.5,0,1,0.1,1.4,0.1c0.8,0,1.5,0,2.3-0.1c0.2-0.1,0.3-0.3,0.5-0.4C25.9,35.5,26.1,32.3,24.5,29z M33.2,33.4
			c3.6-3.5,5.8-8.4,5.8-13.9c0-10-7.5-18.2-17.2-19.4c-2.2,2.6-2.1,5.3-0.8,8.2c1.2,2.5,3.3,5.1,5.6,7.8c3.6,4.4,7.7,9,7.6,13.9
			c0,0.5,0,1-0.2,1.5C33.9,32.1,33.6,32.8,33.2,33.4z"/>
	</g>
</g>
<g>
	<path fill="#272727" d="M54.9,35.4V32h-3v3.4h-1.5v-8H52v3.3h3v-3.3h1.5v8H54.9z"/>
	<path fill="#272727" d="M58.2,28.7V27h1.5v1.7H58.2z M58.2,35.4v-5.8h1.5v5.8H58.2z"/>
	<path fill="#272727" d="M62.5,33.3c0,0.7,0.4,1,1.1,1c0.6,0,1.2-0.1,1.8-0.3l0.2,1.1c-0.6,0.2-1.4,0.4-2.1,0.4
		c-0.9,0-1.5-0.2-1.9-0.6C61.2,34.5,61,34,61,33.2v-1.5c0-0.7,0.2-1.2,0.5-1.6c0.4-0.5,1-0.7,1.9-0.7c0.9,0,1.5,0.2,1.8,0.7
		c0.3,0.4,0.4,0.9,0.4,1.7V33h-3.3V33.3z M61.8,28.3c0.5-0.4,1.1-0.8,1.7-1.3l0.8,0.7c0.3,0.2,0.6,0.5,0.8,0.6L64.7,29
		c-0.2-0.1-0.5-0.3-0.7-0.4l-0.6-0.4c-0.4,0.3-0.8,0.5-1.2,0.8L61.8,28.3z M62.5,31.8h1.9v-0.3c0-0.6-0.3-0.9-0.9-0.9
		c-0.6,0-1,0.3-1,0.9V31.8z M62.9,36h1.2v1.2h-1.2V36z"/>
	<path fill="#272727" d="M68.5,29.5v4.1c0,0.3,0.2,0.5,0.5,0.5c0.4,0,0.9-0.2,1.5-0.5v-4.1h1.5v5.8h-1.1l-0.1-0.5
		c-0.8,0.4-1.6,0.6-2.3,0.6c-0.9,0-1.3-0.6-1.3-1.7v-4.2H68.5z"/>
	<path fill="#272727" d="M78.6,35.5c-0.9-0.1-1.6-0.3-2-0.8c-0.4-0.4-0.6-1-0.6-1.6v-3.3c0-0.7,0.2-1.3,0.7-1.7
		c0.5-0.5,1.3-0.7,2.4-0.7s1.8,0.2,2.4,0.7c0.4,0.4,0.7,1,0.7,1.7V33c0,0.6-0.1,1.1-0.4,1.5c-0.3,0.4-0.8,0.7-1.5,0.9l0.6,1.5
		l-1.4,0.6L78.6,35.5z M77.5,32.9c0,0.8,0.5,1.2,1.5,1.2s1.5-0.4,1.5-1.2v-3.1c0-0.8-0.5-1.2-1.5-1.2s-1.5,0.4-1.5,1.2V32.9z"/>
	<path fill="#272727" d="M85,29.5v4.1c0,0.3,0.2,0.5,0.5,0.5c0.4,0,0.9-0.2,1.5-0.5v-4.1h1.5v5.8h-1.1l-0.1-0.5
		c-0.8,0.4-1.6,0.6-2.3,0.6c-0.9,0-1.3-0.6-1.3-1.7v-4.2H85z"/>
	<path fill="#272727" d="M94.5,35.4h-1.2L93.2,35c-0.5,0.3-1.1,0.5-1.7,0.5c-0.5,0-0.9-0.2-1.2-0.5c-0.2-0.3-0.4-0.7-0.4-1.2
		c0-1.1,0.6-1.6,1.7-1.6H93v-0.6c0-0.3-0.1-0.6-0.2-0.7c-0.2-0.1-0.5-0.2-0.9-0.2c-0.5,0-1,0.1-1.6,0.2l-0.2-1.1
		c0.6-0.2,1.3-0.3,2-0.3c0.9,0,1.5,0.2,1.9,0.5c0.3,0.3,0.5,0.8,0.5,1.6V35.4z M91.7,28.5c0.3-0.2,0.5-0.4,0.6-0.5
		c0.1-0.1,0.1-0.2,0.1-0.3c0-0.2-0.1-0.3-0.4-0.3c-0.1,0-0.2,0-0.4,0c-0.1,0-0.3,0-0.4,0.1l-0.1-0.7c0.4-0.1,0.7-0.1,1-0.1
		c0.4,0,0.7,0.1,0.9,0.3c0.2,0.2,0.2,0.4,0.2,0.7c0,0.3-0.1,0.5-0.2,0.7c-0.1,0.1-0.4,0.4-0.9,0.8L91.7,28.5z M93,33.2H92
		c-0.4,0-0.6,0.2-0.6,0.6c0,0.4,0.2,0.6,0.6,0.6c0.4,0,0.8-0.1,1.1-0.3V33.2z"/>
	<path fill="#272727" d="M98.2,30.7H99v-3.3h3c0.9,0,1.6,0.2,2.1,0.6c0.4,0.4,0.6,0.9,0.6,1.5v3.7c0,0.6-0.2,1.1-0.6,1.5
		c-0.5,0.4-1.1,0.6-2.1,0.6h-3v-3.4h-0.8V30.7z M100.5,30.7h1.2v1.2h-1.2V34h1.3c0.9,0,1.3-0.4,1.3-1.2v-3c0-0.8-0.4-1.2-1.3-1.2
		h-1.3V30.7z"/>
	<path fill="#272727" d="M110.6,35.4h-1.2l-0.1-0.4c-0.5,0.3-1.1,0.5-1.7,0.5c-0.5,0-0.9-0.2-1.2-0.5c-0.2-0.3-0.4-0.7-0.4-1.2
		c0-1.1,0.6-1.6,1.7-1.6h1.4v-0.6c0-0.3-0.1-0.6-0.2-0.7c-0.2-0.1-0.5-0.2-0.9-0.2c-0.5,0-1,0.1-1.6,0.2l-0.2-1.1
		c0.6-0.2,1.3-0.3,2-0.3c0.9,0,1.5,0.2,1.9,0.5c0.3,0.3,0.5,0.8,0.5,1.6V35.4z M106.7,28.3c0.5-0.4,1.1-0.8,1.7-1.3l0.8,0.7
		c0.3,0.2,0.6,0.5,0.8,0.6l-0.5,0.6c-0.3-0.1-0.5-0.3-0.7-0.4l-0.6-0.4c-0.4,0.3-0.8,0.5-1.2,0.8L106.7,28.3z M109.1,33.2H108
		c-0.4,0-0.6,0.2-0.6,0.6c0,0.4,0.2,0.6,0.6,0.6c0.4,0,0.8-0.1,1.1-0.3V33.2z M109.5,27.3c-0.3-0.2-0.6-0.3-0.9-0.5
		c-0.2-0.2-0.6-0.3-0.9-0.6l0.6-0.9c0.3,0.2,0.6,0.4,0.9,0.6c0.3,0.2,0.6,0.4,0.9,0.6L109.5,27.3z"/>
	<path fill="#272727" d="M113.5,29.5v4.1c0,0.3,0.2,0.5,0.5,0.5c0.4,0,0.9-0.2,1.5-0.5v-4.1h1.5v5.8h-1.1l-0.1-0.5
		c-0.8,0.4-1.6,0.6-2.3,0.6c-0.9,0-1.3-0.6-1.3-1.7v-4.2H113.5z"/>
	<path fill="#272727" d="M122.9,28.7h-2.2v-1.3h6v1.3h-2.2v6.7h-1.5V28.7z"/>
	<path fill="#272727" d="M129.2,29.5v4.1c0,0.3,0.2,0.5,0.5,0.5c0.4,0,0.9-0.2,1.5-0.5v-4.1h1.5v5.8h-1.1l-0.1-0.5
		c-0.8,0.4-1.6,0.6-2.3,0.6c-0.9,0-1.3-0.6-1.3-1.7v-4.2H129.2z M133.2,28.3v1.2l-0.7,1.3l-0.5-0.3l0.4-1h-0.4v-1.1H133.2z"/>
	<path fill="#272727" d="M136.7,31.4h3v1.2h-3V31.4z"/>
	<path fill="#272727" d="M143.7,29.6c0-1.5,0.9-2.3,2.8-2.3c0.8,0,1.5,0.1,2.2,0.3l-0.2,1.3c-0.7-0.1-1.4-0.2-2-0.2
		c-0.9,0-1.4,0.4-1.4,1.2v3.1c0,0.8,0.5,1.2,1.4,1.2c0.6,0,1.2-0.1,2-0.2l0.2,1.3c-0.7,0.2-1.4,0.3-2.2,0.3c-1.9,0-2.8-0.8-2.8-2.3
		V29.6z"/>
	<path fill="#272727" d="M154.5,30.2c0.3,0.4,0.4,0.9,0.4,1.5v1.5c0,0.7-0.2,1.2-0.5,1.6c-0.4,0.5-1.1,0.7-2,0.7
		c-0.9,0-1.6-0.2-2-0.7c-0.3-0.4-0.5-0.9-0.5-1.6v-1.5c0-0.7,0.2-1.2,0.5-1.6c0.4-0.5,1.1-0.7,2-0.7c0.7,0,1.2,0.1,1.6,0.4l0.2-0.4
		h-0.4v-1.1h1.1v1.2L154.5,30.2z M153.4,31.7c0-0.7-0.4-1-1.1-1c-0.7,0-1.1,0.3-1.1,1v1.6c0,0.7,0.4,1,1.1,1c0.7,0,1.1-0.3,1.1-1
		V31.7z"/>
	<path fill="#272727" d="M163.3,35.4V32h-3v3.4h-1.5v-8h1.5v3.3h3v-3.3h1.5v8H163.3z"/>
	<path fill="#272727" d="M171.4,33.2c0,0.7-0.2,1.2-0.5,1.6c-0.4,0.5-1.1,0.7-2,0.7s-1.6-0.2-2-0.7c-0.3-0.4-0.5-0.9-0.5-1.6v-1.5
		c0-0.7,0.2-1.2,0.5-1.6c0.4-0.5,1.1-0.7,2-0.7s1.6,0.2,2,0.7c0.3,0.4,0.5,0.9,0.5,1.6V33.2z M167.2,28.3c0.5-0.4,1.1-0.8,1.7-1.3
		l0.8,0.7c0.3,0.2,0.6,0.5,0.8,0.6l-0.5,0.6c-0.2-0.1-0.5-0.3-0.7-0.4l-0.6-0.4c-0.4,0.3-0.8,0.5-1.2,0.8L167.2,28.3z M170,31.7
		c0-0.7-0.4-1-1.1-1s-1.1,0.3-1.1,1v1.6c0,0.7,0.4,1,1.1,1s1.1-0.3,1.1-1V31.7z M168.3,36h1.2v1.2h-1.2V36z"/>
	<path fill="#272727" d="M172.8,28.7V27h1.5v1.7H172.8z M172.8,35.4v-5.8h1.5v5.8H172.8z"/>
	<path fill="#272727" d="M183,33.7h-3l-0.5,1.7H178l2.5-8h2.1l2.5,8h-1.6L183,33.7z M180.4,32.4h2.2l-1.1-3.8L180.4,32.4z"/>
	<path fill="#272727" d="M189.7,35.4v-4.1c0-0.3-0.2-0.5-0.5-0.5c-0.4,0-0.9,0.2-1.5,0.5v4.1h-1.5v-5.8h1.1l0.1,0.5
		c0.8-0.4,1.6-0.6,2.3-0.6c0.9,0,1.3,0.6,1.3,1.7v4.2H189.7z"/>
	<path fill="#272727" d="M195.2,29.6c0-1.5,0.9-2.3,2.8-2.3c0.8,0,1.5,0.1,2.2,0.3l-0.2,1.3c-0.7-0.1-1.4-0.2-2-0.2
		c-0.9,0-1.4,0.4-1.4,1.2v3.1c0,0.8,0.5,1.2,1.4,1.2c0.6,0,1.2-0.1,2-0.2l0.2,1.3c-0.7,0.2-1.4,0.3-2.2,0.3c-1.9,0-2.8-0.8-2.8-2.3
		V29.6z"/>
	<path fill="#272727" d="M203,29.5v4.1c0,0.3,0.2,0.5,0.5,0.5c0.4,0,0.9-0.2,1.5-0.5v-4.1h1.5v5.8h-1.1l-0.1-0.5
		c-0.8,0.4-1.6,0.6-2.3,0.6c-0.9,0-1.3-0.6-1.3-1.7v-4.2H203z M207,28.3v1.2l-0.7,1.3l-0.5-0.3l0.4-1h-0.4v-1.1H207z"/>
</g>
<path d="M133.4,19.9h-5.5l-0.7-2.3h-5.6l-0.7,2.3h-5.5l6.1-17.5h5.7L133.4,19.9z M126.2,13.9l-1.7-6.1l-1.8,6.1H126.2z"/>
<polygon points="107.3,15.2 107.3,2.4 101.8,2.4 101.8,19.9 114,19.9 115.7,15.2 "/>
<path d="M151.4,19.9h-5.3l-4.9-8.1c-0.3-0.5-0.6-1.4-1-2.5c0.1,0.6,0.1,1.3,0.1,2.1v8.5H135V2.4h5.3l4.9,8.1c0.3,0.5,0.6,1.4,1,2.5
	c-0.1-0.6-0.1-1.3-0.1-2.2V2.4h5.3V19.9z"/>
<path d="M171.2,11.2c0,4-1.5,6.7-4.5,8c-1.1,0.5-3.2,0.7-6.2,0.7h-5.7V2.4h6.8c1.4,0,2.4,0,3.1,0.1c1.2,0.1,2.1,0.4,2.9,0.9
	C170,4.8,171.2,7.4,171.2,11.2z M165.6,11.2c0-1.5-0.2-2.5-0.7-3.2c-0.6-0.8-1.5-1.1-2.9-1.1h-1.6v8.6h1.5c1.5,0,2.5-0.4,3-1.1
	C165.3,13.8,165.6,12.7,165.6,11.2z"/>
<path fill="#D71920" d="M198.6,13.3v-3h7.8v7.2c-0.8,0.7-1.9,1.4-3.3,1.9c-1.4,0.6-2.9,0.8-4.4,0.8c-1.9,0-3.5-0.4-4.9-1.2
	c-1.4-0.8-2.5-1.9-3.2-3.4c-0.7-1.5-1.1-3.1-1.1-4.8c0-1.9,0.4-3.5,1.2-5c0.8-1.5,1.9-2.6,3.5-3.4c1.2-0.6,2.6-0.9,4.3-0.9
	c2.2,0,4,0.5,5.2,1.4c1.3,0.9,2.1,2.2,2.4,3.9l-3.6,0.7c-0.3-0.9-0.7-1.6-1.4-2.1c-0.7-0.5-1.6-0.8-2.6-0.8c-1.6,0-2.9,0.5-3.8,1.5
	c-0.9,1-1.4,2.5-1.4,4.5c0,2.1,0.5,3.7,1.4,4.8c0.9,1.1,2.2,1.6,3.7,1.6c0.8,0,1.5-0.2,2.3-0.5c0.8-0.3,1.4-0.7,2-1.1v-2.3H198.6z"
	/>
<path fill="#D71920" d="M186.5,12c-0.5-0.7-1.1-1.3-1.9-1.8c-0.8-0.4-2.1-0.8-3.8-1.3c-1.7-0.4-2.8-0.8-3.2-1.2
	c-0.3-0.3-0.5-0.6-0.5-1.1c0-0.5,0.2-0.8,0.6-1.1c0.6-0.4,1.4-0.6,2.4-0.6c1,0,1.7,0.2,2.2,0.6c0.4,0.3,0.7,0.8,0.8,1.4h3.6
	c-0.1-1.4-0.7-2.6-1.7-3.4c-1.1-1-2.8-1.4-4.9-1.4c-1.3,0-2.5,0.2-3.4,0.6c-0.9,0.4-1.7,1-2.2,1.8c-0.5,0.8-0.8,1.6-0.8,2.5
	c0,1.4,0.5,2.6,1.6,3.5c0.8,0.7,2.1,1.3,4,1.7c1.5,0.4,2.4,0.6,2.8,0.8c0.6,0.2,1,0.5,1.3,0.8c0.2,0.3,0.4,0.6,0.4,1.1
	c0,0.6-0.3,1.2-0.9,1.7c-0.6,0.5-1.4,0.7-2.6,0.7c-1.1,0-1.9-0.3-2.6-0.8c-0.5-0.4-0.9-1.1-1.1-2H173c0.3,1.8,0.9,3.3,2.1,4.2
	c1.2,1,2.9,1.5,5.1,1.5c1.5,0,2.8-0.2,3.8-0.6c1-0.4,1.8-1.1,2.4-1.9c0.6-0.9,0.8-1.8,0.8-2.8C187.2,13.7,186.9,12.8,186.5,12z"/>
<g>
	<polygon fill-rule="evenodd" clip-rule="evenodd" fill="#E11B22" points="84.8,19.2 82.8,19.2 82.8,11.8 84.8,19.2 84.8,19.2 	"/>
	<polygon fill-rule="evenodd" clip-rule="evenodd" fill="#E11B22" points="85.2,19.2 88.1,19.2 82.8,10.2 82.8,10.6 85.2,19.2 
		85.2,19.2 	"/>
	<polygon fill-rule="evenodd" clip-rule="evenodd" fill="#E11B22" points="85.6,2.4 84,2.4 82.8,6.7 82.8,7.1 85.6,2.4 85.6,2.4 	
		"/>
	<polygon fill-rule="evenodd" clip-rule="evenodd" fill="#E11B22" points="82.8,5.5 82.8,2.3 83.7,2.3 82.8,5.5 82.8,5.5 	"/>
	<polygon fill-rule="evenodd" clip-rule="evenodd" fill="#E11B22" points="88.2,2.4 86,2.4 83,7.6 88.2,2.4 88.2,2.4 	"/>
	<polygon fill-rule="evenodd" clip-rule="evenodd" fill="#E11B22" points="89.8,4 89.1,2.4 88.6,2.4 83.1,7.9 89.8,4 89.8,4 	"/>
	<polygon fill-rule="evenodd" clip-rule="evenodd" fill="#E11B22" points="90.7,6.2 90,4.3 83.4,8.1 90.7,6.2 90.7,6.2 	"/>
	<polygon fill-rule="evenodd" clip-rule="evenodd" fill="#E11B22" points="91.7,8.5 90.9,6.5 83.5,8.5 91.7,8.5 91.7,8.5 	"/>
	<polygon fill-rule="evenodd" clip-rule="evenodd" fill="#E11B22" points="92.4,5.7 92.4,2.3 98.3,2.3 98.3,4.1 92.4,5.7 92.4,5.7 	
		"/>
	<polygon fill-rule="evenodd" clip-rule="evenodd" fill="#E11B22" points="98.3,4.5 98.3,8.5 92.4,8.5 92.4,6.1 98.3,4.5 98.3,4.5 	
		"/>
	<polygon fill-rule="evenodd" clip-rule="evenodd" fill="#E11B22" points="98.3,8.8 98.3,12.8 83.5,8.8 91.9,8.8 92.3,10 92.3,8.8 
		98.3,8.8 98.3,8.8 	"/>
	<polygon fill-rule="evenodd" clip-rule="evenodd" fill="#E11B22" points="98.3,18.2 98.3,19.2 92.1,19.2 89.5,13.1 98.3,18.2 
		98.3,18.2 	"/>
	<polygon fill-rule="evenodd" clip-rule="evenodd" fill="#E11B22" points="88.8,12.3 88.8,11.5 89.3,12.6 98.3,17.8 98.3,13.2 
		83.4,9.2 88.8,12.3 88.8,12.3 	"/>
	<polygon fill-rule="evenodd" clip-rule="evenodd" fill="#E11B22" points="88.8,15.1 88.8,12.7 83.2,9.5 88.8,15.1 88.8,15.1 	"/>
	<polygon fill-rule="evenodd" clip-rule="evenodd" fill="#E11B22" points="88.4,19.2 88.8,19.2 88.8,15.5 82.9,9.7 88.4,19.2 
		88.4,19.2 	"/>
	<polygon fill-rule="evenodd" clip-rule="evenodd" fill="#E11B22" points="71.5,2.3 73.1,2.3 73.1,3.3 71.5,2.3 71.5,2.3 	"/>
	<polygon fill-rule="evenodd" clip-rule="evenodd" fill="#E11B22" points="73.1,6.1 73.1,3.6 70.9,2.4 66.6,2.4 66.6,4.3 73.1,6.1 
		73.1,6.1 	"/>
	<polygon fill-rule="evenodd" clip-rule="evenodd" fill="#E11B22" points="66.6,8.5 66.6,4.7 73.1,6.4 73.1,8.5 66.6,8.5 66.6,8.5 	
		"/>
	<polygon fill-rule="evenodd" clip-rule="evenodd" fill="#E11B22" points="73.1,8.8 73.1,10.9 66.6,12.6 66.6,8.8 73.1,8.8 
		73.1,8.8 	"/>
	<path fill-rule="evenodd" clip-rule="evenodd" fill="#E11B22" d="M67.4,17c-0.5-0.8-0.7-1.7-0.7-2.9l0,0V13l6.5-1.7v2.4L67.4,17
		L67.4,17L67.4,17z"/>
	<path fill-rule="evenodd" clip-rule="evenodd" fill="#E11B22" d="M81.6,11.3l0,2.9l0,0c0,1.9-0.7,3-1.8,3.9l0,0L81.6,11.3
		L81.6,11.3L81.6,11.3z"/>
	<path fill-rule="evenodd" clip-rule="evenodd" fill="#E11B22" d="M76,19.6c1.3-0.2,2.4-0.5,3.3-1.1l0,0l2.2-8.2V10L76,19.6L76,19.6
		L76,19.6z"/>
	<polygon fill-rule="evenodd" clip-rule="evenodd" fill="#E11B22" points="78.7,2.4 80.3,2.4 81.5,7 81.5,7.3 78.7,2.4 78.7,2.4 	
		"/>
	<polygon fill-rule="evenodd" clip-rule="evenodd" fill="#E11B22" points="81.5,5.8 81.6,2.4 80.6,2.4 81.5,5.8 81.5,5.8 	"/>
	<polygon fill-rule="evenodd" clip-rule="evenodd" fill="#E11B22" points="78.3,2.4 76.1,2.4 81.4,7.7 78.3,2.4 78.3,2.4 	"/>
	<polygon fill-rule="evenodd" clip-rule="evenodd" fill="#E11B22" points="75,4.3 75,2.4 75.6,2.4 81.1,7.8 75,4.3 75,4.3 	"/>
	<polygon fill-rule="evenodd" clip-rule="evenodd" fill="#E11B22" points="75,4.7 75,6.6 81,8.2 75,4.7 75,4.7 	"/>
	<polygon fill-rule="evenodd" clip-rule="evenodd" fill="#E11B22" points="75,8.5 75,6.9 80.9,8.5 75,8.5 75,8.5 	"/>
	<polygon fill-rule="evenodd" clip-rule="evenodd" fill="#E11B22" points="75,10.4 75,8.8 80.9,8.8 75,10.4 75,10.4 	"/>
	<polygon fill-rule="evenodd" clip-rule="evenodd" fill="#E11B22" points="75,12.6 75,10.7 81,9.1 75,12.6 75,12.6 	"/>
	<path fill-rule="evenodd" clip-rule="evenodd" fill="#E11B22" d="M71.1,19.4c-1.5-0.4-2.7-1.1-3.5-2.1l0,0l5.6-3.2v0.5l0,0
		c0,0.5,0.4,0.8,0.9,0.8c0.5,0,0.9-0.3,0.9-0.8l0,0V13l6-3.5L71.1,19.4L71.1,19.4L71.1,19.4z"/>
	<path fill-rule="evenodd" clip-rule="evenodd" fill="#E11B22" d="M71.5,19.5c0.8,0.2,1.7,0.2,2.6,0.2c0.5,0,1,0,1.5-0.1l0,0l5.7-10
		L71.5,19.5L71.5,19.5L71.5,19.5z"/>
	<path fill-rule="evenodd" clip-rule="evenodd" fill="#E11B22" d="M59.5,14.9c-0.1,0.4-0.5,0.7-1.2,0.7c-0.3,0-0.6,0-0.8-0.2l0,0
		l-6.4,1.7l0,0c0.9,1.4,2.9,2.7,7.4,2.7c4.5,0,7.5-2,7.5-5.9c0-0.3,0-0.6,0-0.9l0,0L59.5,14.9L59.5,14.9L59.5,14.9z"/>
	<path fill-rule="evenodd" clip-rule="evenodd" fill="#E11B22" d="M66,12.8c-0.5-2.8-2.6-3.4-3.4-3.6l0,0l-1.2-0.3H50.7l0,0
		c0.2,1.1,0.9,2.4,3,3.1l0,0l4.6,1.4l0,0c1,0.3,1.2,0.7,1.3,1.1l0,0L66,12.8L66,12.8L66,12.8z"/>
	<path fill-rule="evenodd" clip-rule="evenodd" fill="#E11B22" d="M57.3,15.1c-0.2-0.3-0.3-0.7-0.3-1.3l0,0h-6.5l0,0
		c0,0-0.4,1.5,0.4,3l0,0L57.3,15.1L57.3,15.1L57.3,15.1z"/>
	<path fill-rule="evenodd" clip-rule="evenodd" fill="#E11B22" d="M64.6,3.8c-1-1.1-3-1.9-6.5-1.9c-0.2,0-0.5,0-0.7,0l0,0L64.6,3.8
		L64.6,3.8L64.6,3.8z"/>
	<path fill-rule="evenodd" clip-rule="evenodd" fill="#E11B22" d="M50.6,8.5c-0.1-0.5,0-1,0-1.1c0-0.5,0-4.7,5.9-5.4l0,0l8.4,2.3
		l0,0c0.9,1.3,0.8,2.7,0.8,3.3l0,0h-6.5l0,0c0-1.1-0.3-1.5-1.1-1.5c-0.8,0-1.1,0.4-1.1,0.8c0,0.4,0.1,0.7,1,1l0,0l2.2,0.6L50.6,8.5
		L50.6,8.5L50.6,8.5z"/>
</g>
</svg>
