<?xml version="1.0" encoding="utf-8"?>
<!-- Generator: Adobe Illustrator 18.1.0, SVG Export Plug-In . SVG Version: 6.00 Build 0)  -->
<svg version="1.1" id="Layer_1" xmlns="http://www.w3.org/2000/svg" xmlns:xlink="http://www.w3.org/1999/xlink" x="0px" y="0px"
	 viewBox="0 0 20 20" enable-background="new 0 0 20 20" xml:space="preserve">
<g>
	<g>
		<path fill="#979797" d="M0.8,5.8l2.7-0.3C3.8,5.6,4,5.3,4,5l0-0.3l0.2,0l0,0.3c0,0.3,0.3,0.5,0.6,0.5l2.7-0.3C7.8,5.2,8,5,8,4.7
			l0-0.3l0.2,0l0,0.4c0,0.3,0.3,0.5,0.6,0.5l0.9-0.1l0.7,7.8c0,0.3,0.2,0.5,0.5,0.4c0.3,0,0.4-0.3,0.4-0.5L10.6,5l0.8-0.1
			c0.3,0,0.5-0.3,0.5-0.6l0-0.4l0.2,0l0,0.4c0,0.3,0.3,0.5,0.6,0.5l2.7-0.3c0.3,0,0.5-0.3,0.5-0.6l0-0.4l0.2,0l0,0.5
			c0,0.3,0.3,0.5,0.6,0.5l2.7-0.3c0.3,0,0.5-0.3,0.5-0.6c-0.4-2.3-7.6-3-9.7-2.8l0-0.4C10.1,0.1,9.9,0,9.7,0C9.4,0,9.2,0.2,9.2,0.5
			l0,0.4c-2.6,0.3-9.2,2.5-9,4.4C0.3,5.7,0.5,5.9,0.8,5.8z M5.7,14.2l3.5,2.3c0.3,0.2,0.6,0.2,0.9,0.1l3.8-2l4,2.5
			c0.6,0.2,1.1-0.2,1.3-0.8c0.1-0.6-0.2-1.2-0.8-1.3l-4.2-2.5c-0.2-0.1-0.4-0.1-0.6,0l0,0l-3.7,1.9l-3.1-2.1
			c-0.5-0.3-1.2-0.2-1.5,0.3C5,13.2,5.2,13.9,5.7,14.2z M19,17.8l-5.5-1.9c-0.1,0-0.2,0-0.3,0l-3.6,1.8l-7.9-5.2
			c-0.5-0.3-1.2-0.2-1.5,0.3C-0.1,13.3,0,14,0.5,14.3l2.1,1.3l-2.1,3.7c-0.1,0.2-0.1,0.5,0.1,0.6C0.8,20.1,1,20,1.1,19.8l2.3-3.6
			l5.3,3.5v0c0.2,0.2,0.5,0.2,0.8,0.1l3.9-1.8l5.4,1.9c0.6,0,1.1-0.4,1.1-1C20,18.3,19.6,17.8,19,17.8z M5.4,11
			c-0.2-0.8-1-1.4-1.8-1.2c-0.8,0.2-1.3,1-1.1,1.8c0.2,0.8,1,1.4,1.8,1.2C5.1,12.6,5.6,11.8,5.4,11z"/>
	</g>
</g>
</svg>
