<?xml version="1.0" encoding="utf-8"?>
<!-- Generator: Adobe Illustrator 18.1.0, SVG Export Plug-In . SVG Version: 6.00 Build 0)  -->
<svg version="1.1" id="Layer_1" xmlns="http://www.w3.org/2000/svg" xmlns:xlink="http://www.w3.org/1999/xlink" x="0px" y="0px"
	 viewBox="0 0 22 20" enable-background="new 0 0 22 20" xml:space="preserve">
<g>
	<g>
		<path fill="#979797" d="M0,20h13.2v-2.2H0V20z M11.2,15.3c0-0.4-0.3-0.6-0.6-0.6H2.7c-0.3,0-0.6,0.3-0.6,0.6v2h9.1V15.3z
			 M13.5,6.3L9.4,2.2L6.2,5.5l4.1,4.2L13.5,6.3z M15.4,4.7c0.6-0.4,0-1.9-1.3-3.2c-1.3-1.3-2.7-1.9-3.1-1.3L9.8,1.8l4.1,4.2
			L15.4,4.7z M8.7,11.6l1.2-1.5L5.8,5.9L4.3,7.1c-0.6,0.4,0,1.9,1.3,3.2C6.8,11.6,8.3,12.2,8.7,11.6z M21.4,15.4L13,7.6l-1.5,1.5
			l7.6,8.7c0.5,0.6,1.2,0.8,1.5,0.4l1.2-1.2C22.2,16.6,22,15.9,21.4,15.4z"/>
	</g>
</g>
</svg>
