<?xml version="1.0" encoding="utf-8"?>
<!-- Generator: Adobe Illustrator 18.1.0, SVG Export Plug-In . SVG Version: 6.00 Build 0)  -->
<svg version="1.1" id="Layer_1" xmlns="http://www.w3.org/2000/svg" xmlns:xlink="http://www.w3.org/1999/xlink" x="0px" y="0px"
	 viewBox="0 0 27 19" enable-background="new 0 0 27 19" xml:space="preserve">
<path fill="#979797" d="M2.3,9.2L1.7,8.8l0.6-0.4L2.3,9.2z M3.2,9.1C3.2,9.1,3.1,9.1,3.2,9.1C3.1,9.1,3.1,9.1,3.2,9.1
	C3.1,9.2,3.1,9.2,3.1,9.2c0,0,0,0,0.1,0h0.4c0,0,0.1,0,0.1,0c0,0,0,0,0,0c0,0,0,0,0,0c0,0,0,0-0.1,0H3.5V8.3L3.2,8.4c0,0,0,0-0.1,0
	c0,0,0,0,0,0c0,0,0,0,0,0c0,0,0,0,0,0c0,0,0,0,0,0l0.1,0v0.6H3.2z M4.2,9c0.1,0,0.1-0.1,0.1-0.2c0,0-0.1,0-0.1,0.1
	C4.2,8.9,4.2,8.9,4.2,9C4.1,8.9,4,8.9,4,8.8C3.9,8.8,3.9,8.7,3.9,8.6c0-0.1,0-0.1,0.1-0.2c0-0.1,0.1-0.1,0.2-0.1
	c0.1,0,0.1,0,0.2,0.1c0,0,0.1,0.1,0.1,0.2c0,0.1,0,0.1,0,0.2c0,0.1,0,0.2-0.2,0.3C4.2,9.2,4.1,9.2,4.1,9.2c-0.1,0-0.1,0-0.1,0
	c0,0,0,0,0-0.1c0,0,0,0,0,0c0,0,0,0,0,0c0,0,0,0,0,0c0,0,0,0,0.1,0C4.1,9.1,4.2,9.1,4.2,9z M4.3,8.6c0-0.1,0-0.1-0.1-0.1
	c0,0-0.1,0-0.1,0c0,0-0.1,0-0.1,0c0,0,0,0.1,0,0.1c0,0,0,0.1,0,0.1c0,0,0.1,0,0.1,0C4.2,8.8,4.3,8.8,4.3,8.6z M4.7,8.9
	C4.7,8.8,4.7,8.8,4.7,8.9c0-0.1,0-0.1,0-0.2c0,0,0-0.1,0-0.1c0-0.1,0-0.1,0.1-0.2c0.1,0,0.1-0.1,0.2-0.1c0.1,0,0.1,0,0.2,0.1
	c0,0,0.1,0.1,0.1,0.2c0,0,0,0.1,0,0.1c0,0,0,0.1-0.1,0.1c0,0,0.1,0.1,0.1,0.1c0,0,0,0.1,0,0.1c0,0,0,0.1,0,0.1c0,0-0.1,0.1-0.1,0.1
	c0,0-0.1,0-0.1,0c-0.1,0-0.1,0-0.1,0c0,0-0.1-0.1-0.1-0.1c0,0,0-0.1,0-0.1C4.6,8.9,4.6,8.9,4.7,8.9z M4.8,8.6
	C4.8,8.6,4.8,8.7,4.8,8.6c0.1,0.1,0.1,0.1,0.1,0.1c0,0,0.1,0,0.1,0c0,0,0-0.1,0-0.1c0,0,0-0.1,0-0.1c0,0-0.1,0-0.1,0
	C4.9,8.5,4.8,8.5,4.8,8.6C4.8,8.5,4.8,8.6,4.8,8.6z M4.8,9C4.8,9,4.8,9,4.8,9c0.1,0.1,0.1,0.1,0.2,0.1s0.1,0,0.1,0c0,0,0,0,0-0.1
	c0,0,0-0.1,0-0.1c0,0-0.1,0-0.1,0S4.8,8.9,4.8,9C4.8,8.9,4.8,9,4.8,9z M5.9,9L5.9,9C5.9,9.1,5.9,9.1,5.9,9c0.1,0.1,0.1,0.1,0.1,0.1
	c0,0,0,0,0,0c0,0,0,0-0.1,0H5.7c0,0-0.1,0-0.1,0c0,0,0,0,0,0c0,0,0,0,0,0c0,0,0,0,0.1,0h0V9H5.4V8.9l0.3-0.5h0.2v0.5c0,0,0,0,0.1,0
	C5.9,8.9,5.9,8.9,5.9,9C5.9,9,5.9,9,5.9,9C5.9,9,5.9,9,5.9,9z M5.7,8.6L5.6,8.9h0.2V8.6z M7.6,8.4c0,0,0.1,0.1,0.1,0.1
	c0,0.1,0,0.1,0,0.2v0.1c0,0.1,0,0.2-0.1,0.2c0,0.1-0.1,0.1-0.2,0.1c-0.1,0-0.1,0-0.1,0c0,0-0.1-0.1-0.1-0.1c0-0.1,0-0.1,0-0.2V8.7
	c0-0.1,0-0.2,0.1-0.2c0-0.1,0.1-0.1,0.2-0.1C7.5,8.3,7.6,8.4,7.6,8.4z M7.6,8.7c0-0.1,0-0.1-0.1-0.2c0,0-0.1,0-0.1,0
	c0,0-0.1,0-0.1,0c0,0-0.1,0.1-0.1,0.2v0.1c0,0.1,0,0.1,0.1,0.2c0,0,0.1,0,0.1,0c0,0,0.1,0,0.1,0c0,0,0.1-0.1,0.1-0.2V8.7z M8,9.1
	C8,9.1,8,9.1,8,9.1C8,9.1,8,9.1,8,9.1C8,9.2,8,9.2,8,9.2c0,0,0,0,0.1,0h0.4c0,0,0.1,0,0.1,0c0,0,0,0,0,0c0,0,0,0,0,0c0,0,0,0-0.1,0
	H8.3V8.3L8,8.4c0,0,0,0-0.1,0c0,0,0,0,0,0c0,0,0,0,0,0c0,0,0,0,0,0c0,0,0,0,0,0l0.1,0v0.6H8z M8.7,9.1v0.1h0.6V9.1c0,0,0-0.1,0-0.1
	c0,0,0,0,0,0c0,0,0,0,0,0H8.9C9,9,9.1,8.9,9.1,8.8c0.1-0.1,0.1-0.1,0.1-0.1c0,0,0-0.1,0-0.1c0-0.1,0-0.1-0.1-0.2
	C9.1,8.4,9.1,8.3,9,8.3c-0.1,0-0.1,0-0.1,0c0,0-0.1,0.1-0.1,0.1c0,0,0,0.1,0,0.1c0,0,0,0,0,0c0,0,0,0,0,0c0,0,0,0,0,0c0,0,0,0,0,0
	c0,0,0-0.1,0-0.1c0,0,0.1,0,0.1,0c0,0,0.1,0,0.1,0c0,0,0,0.1,0,0.1c0,0,0,0.1,0,0.1C9.1,8.7,8.9,8.9,8.7,9.1z M9.7,9.1
	c0,0-0.1,0-0.1,0c0,0,0,0-0.1,0c0,0,0,0,0,0c0,0,0,0,0,0c0,0,0,0,0,0c0,0,0,0.1,0,0.1c0.1,0,0.1,0.1,0.2,0.1c0.1,0,0.2,0,0.2-0.1
	C10,9.1,10.1,9,10.1,8.9c0-0.1,0-0.2-0.1-0.2C9.9,8.7,9.9,8.6,9.8,8.6c0,0-0.1,0-0.1,0V8.5h0.3c0,0,0.1,0,0.1,0c0,0,0,0,0,0
	c0,0,0,0,0,0c0,0,0,0-0.1,0H9.5v0.4c0,0,0,0,0,0.1c0,0,0,0,0,0c0,0,0,0,0,0c0.1,0,0.1,0,0.2,0c0,0,0.1,0,0.1,0c0,0,0,0.1,0,0.1
	c0,0.1,0,0.1,0,0.1C9.9,9.1,9.8,9.1,9.7,9.1z M11.3,8.6c0,0,0,0.1,0,0.1C11.3,8.7,11.3,8.7,11.3,8.6c0.1,0.1,0.1,0.1,0.1,0.1
	c0.1,0,0.1,0,0.2,0.1c0.1,0.1,0.1,0.1,0.1,0.2c0,0.1,0,0.1-0.1,0.2c0,0-0.1,0.1-0.2,0.1c-0.1,0-0.1,0-0.2,0c0,0-0.1-0.1-0.1-0.1
	c0-0.1,0-0.1,0-0.2c0-0.1,0-0.2,0.1-0.2c0-0.1,0.1-0.1,0.2-0.2c0.1,0,0.1-0.1,0.2-0.1c0.1,0,0.1,0,0.1,0c0,0,0,0,0,0.1c0,0,0,0,0,0
	c0,0,0,0,0,0c0,0,0,0,0,0c0,0,0,0,0,0c0,0-0.1,0-0.1,0C11.4,8.5,11.4,8.6,11.3,8.6z M11.3,8.9c0,0.1,0,0.1,0.1,0.1c0,0,0.1,0,0.1,0
	c0,0,0.1,0,0.1,0c0,0,0-0.1,0-0.1c0,0,0-0.1,0-0.1c0,0-0.1,0-0.1,0c0,0-0.1,0-0.1,0C11.4,8.9,11.3,8.9,11.3,8.9z M12.1,8.6
	c0,0,0,0.1,0,0.1C12.1,8.7,12.1,8.7,12.1,8.6c0.1,0.1,0.1,0.1,0.1,0.1c0.1,0,0.1,0,0.2,0.1c0.1,0.1,0.1,0.1,0.1,0.2
	c0,0.1,0,0.1-0.1,0.2c0,0-0.1,0.1-0.2,0.1c-0.1,0-0.1,0-0.2,0C12,9.1,12,9.1,12,9c0-0.1,0-0.1,0-0.2c0-0.1,0-0.2,0.1-0.2
	c0-0.1,0.1-0.1,0.2-0.2c0.1,0,0.1-0.1,0.2-0.1c0.1,0,0.1,0,0.1,0c0,0,0,0,0,0.1c0,0,0,0,0,0c0,0,0,0,0,0c0,0,0,0,0,0c0,0,0,0,0,0
	c0,0-0.1,0-0.1,0C12.2,8.5,12.1,8.6,12.1,8.6z M12.1,8.9c0,0.1,0,0.1,0.1,0.1c0,0,0.1,0,0.1,0s0.1,0,0.1,0c0,0,0-0.1,0-0.1
	c0,0,0-0.1,0-0.1c0,0-0.1,0-0.1,0c0,0-0.1,0-0.1,0C12.1,8.9,12.1,8.9,12.1,8.9z M12.6,9v0.1h0.6V9.1c0,0,0-0.1,0-0.1c0,0,0,0,0,0
	c0,0,0,0,0,0h-0.3c0.1-0.1,0.2-0.2,0.3-0.2c0.1-0.1,0.1-0.1,0.1-0.1c0,0,0-0.1,0-0.1c0-0.1,0-0.1-0.1-0.2c-0.1-0.1-0.1-0.1-0.2-0.1
	c-0.1,0-0.1,0-0.1,0c0,0-0.1,0.1-0.1,0.1c0,0,0,0.1,0,0.1c0,0,0,0,0,0c0,0,0,0,0,0c0,0,0,0,0,0c0,0,0,0,0,0c0,0,0,0,0-0.1
	c0,0,0.1,0,0.1,0c0,0,0.1,0,0.1,0c0,0,0,0.1,0,0.1c0,0,0,0.1,0,0.1C13,8.7,12.9,8.8,12.6,9z M13.9,8.7c0,0,0-0.1,0-0.1
	c0-0.1,0-0.1-0.1-0.2c-0.1-0.1-0.1-0.1-0.2-0.1c-0.1,0-0.1,0-0.1,0c0,0-0.1,0.1-0.1,0.1c0,0,0,0.1,0,0.1c0,0,0,0,0,0c0,0,0,0,0,0
	c0,0,0,0,0,0c0,0,0,0,0,0c0,0,0,0,0-0.1c0,0,0.1,0,0.1,0c0,0,0.1,0,0.1,0c0,0,0,0.1,0,0.1c0,0,0,0.1,0,0.1c0,0.1-0.2,0.2-0.4,0.4
	v0.1H14V9.1c0,0,0-0.1,0-0.1c0,0,0,0,0,0c0,0,0,0,0,0h-0.3c0.1-0.1,0.2-0.2,0.3-0.2C13.9,8.8,13.9,8.7,13.9,8.7z M15.4,9L15.4,9
	C15.4,9.1,15.4,9.1,15.4,9c0.1,0.1,0.1,0.1,0.1,0.1c0,0,0,0,0,0c0,0,0,0-0.1,0h-0.2c0,0-0.1,0-0.1,0c0,0,0,0,0,0c0,0,0,0,0,0
	c0,0,0,0,0.1,0h0V9h-0.3V8.9l0.3-0.5h0.2v0.5c0,0,0,0,0.1,0C15.5,8.9,15.5,9,15.4,9C15.5,9,15.5,9,15.4,9C15.4,9,15.4,9,15.4,9z
	 M15.3,8.6l-0.2,0.3h0.2V8.6z M16.1,9L16.1,9C16.2,9.1,16.2,9.1,16.1,9c0.1,0.1,0.1,0.1,0.1,0.1c0,0,0,0,0,0c0,0,0,0-0.1,0H16
	c0,0-0.1,0-0.1,0c0,0,0,0,0,0c0,0,0,0,0,0c0,0,0,0,0.1,0h0V9h-0.3V8.9L16,8.4h0.2v0.5c0,0,0,0,0.1,0C16.2,8.9,16.2,9,16.1,9
	C16.2,9,16.2,9,16.1,9C16.2,9,16.2,9,16.1,9z M16,8.6l-0.2,0.3H16V8.6z M16.9,9L16.9,9C16.9,9.1,17,9.1,16.9,9C17,9.1,17,9.1,17,9.2
	c0,0,0,0,0,0c0,0,0,0-0.1,0h-0.2c0,0-0.1,0-0.1,0c0,0,0,0,0,0c0,0,0,0,0,0c0,0,0,0,0.1,0h0.1V9h-0.3V8.9l0.3-0.5h0.2v0.5
	c0,0,0,0,0.1,0C17,8.9,17,9,16.9,9C17,9,17,9,16.9,9C17,9,16.9,9,16.9,9z M16.8,8.6l-0.2,0.3h0.2V8.6z M17.7,9L17.7,9
	C17.7,9.1,17.7,9.1,17.7,9c0.1,0.1,0.1,0.1,0.1,0.1c0,0,0,0,0,0c0,0,0,0-0.1,0h-0.2c0,0-0.1,0-0.1,0c0,0,0,0,0,0c0,0,0,0,0,0
	c0,0,0,0,0.1,0h0V9h-0.3V8.9l0.3-0.5h0.2v0.5c0,0,0,0,0.1,0C17.7,8.9,17.8,9,17.7,9C17.8,9,17.7,9,17.7,9C17.7,9,17.7,9,17.7,9z
	 M17.5,8.6l-0.2,0.3h0.2V8.6z M27,14.4c-0.1,0.9-0.4,1.6-0.9,2.2c-0.6,0.6-1.4,1-2.4,1.2V19l-2.2,0v-1.2c-1.2-0.2-2.1-0.8-2.6-1.7
	c-0.5-0.9-0.8-1.8-0.8-2.7h2.2c0,0.6,0.1,1,0.3,1.3c0.2,0.3,0.5,0.6,0.9,0.7v-3.5c-0.2-0.1-0.3-0.1-0.5-0.2
	c-0.2-0.1-0.3-0.1-0.5-0.2c-0.7-0.3-1.3-0.7-1.7-1.3c-0.4-0.6-0.6-1.3-0.5-2.1c0-0.7,0.3-1.4,0.8-2c0.5-0.7,1.3-1.1,2.4-1.3V3.7h2.2
	v1.1c1.2,0.3,2,0.9,2.4,1.8c0.4,0.9,0.6,1.6,0.6,2.2h-2.1c0-0.4-0.1-0.7-0.2-1c-0.1-0.3-0.4-0.6-0.7-0.7v3.4
	c0.2,0.1,0.5,0.1,0.7,0.2c0.2,0.1,0.4,0.2,0.7,0.3c0.7,0.3,1.2,0.8,1.6,1.4C26.9,13,27.1,13.7,27,14.4z M21.4,6.9
	c-0.4,0.2-0.6,0.4-0.8,0.6c-0.2,0.3-0.2,0.5-0.2,0.9c0,0.4,0.1,0.6,0.3,0.8c0.2,0.2,0.4,0.4,0.7,0.5V6.9z M24.6,13.5
	c-0.1-0.3-0.4-0.5-0.8-0.7c0,0,0,0-0.1,0c0,0-0.1,0-0.1-0.1v2.9c0.4-0.1,0.6-0.3,0.8-0.5c0.2-0.2,0.3-0.4,0.3-0.7
	C24.8,14.1,24.7,13.7,24.6,13.5z M3.3,17c-1.3,0-2.4-1.1-2.4-2.5V7.5h17c0.1-0.5,0.4-1.1,0.8-1.6c0.4-0.6,1-1,1.7-1.2H0.9V3.4
	C0.9,2.1,2,1,3.3,1h16c1.3,0,2.3,1,2.4,2.3h1c0-0.9-0.4-1.7-1-2.3v0c-0.6-0.6-1.4-1-2.3-1h0h-16h0h0C2.4,0,1.6,0.4,1,1
	C0.4,1.6,0,2.5,0,3.4v0v0v11.1v0v0c0,0.9,0.4,1.8,1,2.4c0.6,0.6,1.4,1,2.3,1h0h0h0h16h0h0c0.3,0,0.6,0,0.8-0.1
	c-0.5-0.2-0.9-0.5-1.3-0.9H3.3z"/>
</svg>
