<?xml version="1.0" encoding="utf-8"?>
<!-- Generator: Adobe Illustrator 18.1.0, SVG Export Plug-In . SVG Version: 6.00 Build 0)  -->
<svg version="1.1" id="Layer_1" xmlns="http://www.w3.org/2000/svg" xmlns:xlink="http://www.w3.org/1999/xlink" x="0px" y="0px"
	 viewBox="0 0 22 20" enable-background="new 0 0 22 20" xml:space="preserve">
<g>
	<g>
		<path fill="#979797" d="M20,0H4.6c-1.1,0-2,0.9-2,2.1v3.5H2c-1.1,0-2,1-2,2.1v10.1C0,19.1,0.9,20,2,20H20c1.1,0,2-1,2-2.1V2.1
			C22,0.9,21.1,0,20,0z M2,18.6L2,18.6c-0.4,0-0.7-0.3-0.7-0.7V7.8c0-0.4,0.3-0.7,0.7-0.7h0.6v10.8c0,0.2,0,0.5,0.1,0.7H2z
			 M20.7,17.9c0,0.4-0.3,0.7-0.7,0.7H4.6c-0.4,0-0.7-0.3-0.7-0.7V2.1c0-0.4,0.3-0.7,0.7-0.7H20c0.4,0,0.7,0.3,0.7,0.7V17.9z M18,7.2
			h-2.5v1.6H18V7.2z M15.5,11.5h3.6V9.9h-3.6V11.5z M15.5,14.2h3.1v-1.6h-3.1V14.2z M10,8.1l-2.9,3.1c0,0-0.1,0.1-0.1,0.1v2.5
			c0,0.3,0.2,0.5,0.4,0.5h1.6v-2.6h2v2.6h1.6c0.2,0,0.4-0.2,0.4-0.5v-2.4c0,0-0.1-0.1-0.1-0.1L10,8.1z M10.6,6.4L10,5.8L9.4,6.4
			l-3.7,3.9c-0.2,0.2-0.2,0.5,0,0.7c0.1,0.1,0.2,0.1,0.3,0.1c0.1,0,0.2,0,0.3-0.1L10,7.1l3.7,3.9c0.1,0.1,0.2,0.1,0.3,0.1
			c0.1,0,0.2,0,0.3-0.1c0.2-0.2,0.2-0.5,0-0.7L10.6,6.4z"/>
	</g>
</g>
</svg>
