<?xml version="1.0" encoding="utf-8"?>
<!-- Generator: Adobe Illustrator 18.1.0, SVG Export Plug-In . SVG Version: 6.00 Build 0)  -->
<svg version="1.1" id="Layer_1" xmlns="http://www.w3.org/2000/svg" xmlns:xlink="http://www.w3.org/1999/xlink" x="0px" y="0px"
	 viewBox="0 0 29 20" enable-background="new 0 0 29 20" xml:space="preserve">
<g>
	<g>
		<path fill="#979797" d="M20.5,8.3v1.5h7.1v3.4h-7.4V2.3h-6.4V0h-1.5v2.3H8.8V0H7.4v2.3h-3v17.2h15.7v-4.9h7.4v3.4h-7.1v1.5H29V8.3
			H20.5z M9.9,18.1h-4v-6.8h4V18.1z M18.6,18.1h-3.5c0-1.9,1.6-3.4,3.5-3.4V18.1z M18.6,9h-3.2v1.5h3.2v2.7c-2.8,0-5,2.2-5,4.9h-2.3
			V9.7H5.9V3.8h1.5v2.3h1.5V3.8h3.4v2.3h1.5V3.8h4.9V9z M0.1,3.6h1.1v4.6H2V3.6h1.4V2.7H0.1V3.6z M2.1,13.9H1.2v5.2H0V20h3.4v-0.9
			H2.1V13.9z M1.1,12.3c0.2,0.1,0.3,0.2,0.5,0.2l0-0.3c-0.2,0-0.4-0.1-0.5-0.1L1.1,12.3z M1.1,12.7c0.2,0.1,0.3,0.2,0.5,0.2l0-0.3
			c-0.2,0-0.4-0.1-0.5-0.1L1.1,12.7z M1.6,11.4c0.1,0,0.3,0.1,0.5,0.4L2.3,12h0.2V11H2.2v0.5h0l-0.1-0.1c-0.2-0.2-0.3-0.3-0.6-0.3
			c-0.2,0-0.4,0.2-0.4,0.5c0,0.2,0.1,0.3,0.1,0.4l0.2-0.1c0-0.1-0.1-0.2-0.1-0.3C1.4,11.4,1.5,11.4,1.6,11.4z M1.9,9.9V10H1.2v0.4
			L2,10.9h0.2v-0.6h0.3V10H2.2V9.9H1.9z M1.9,10.6L1.9,10.6l-0.3-0.2c-0.1,0-0.2-0.1-0.2-0.1v0c0.1,0,0.2,0,0.2,0h0.3V10.6z
			 M1.6,9.2C1.5,9.1,1.3,9,1.1,9l0,0.3c0.2,0,0.4,0.1,0.5,0.1L1.6,9.2z M1.1,9.6c0.2,0,0.4,0.1,0.5,0.1l0-0.2
			C1.5,9.5,1.3,9.4,1.1,9.4L1.1,9.6z"/>
	</g>
</g>
</svg>
