<?xml version="1.0" encoding="utf-8"?>
<!-- Generator: Adobe Illustrator 18.1.0, SVG Export Plug-In . SVG Version: 6.00 Build 0)  -->
<svg version="1.1" id="Layer_1" xmlns="http://www.w3.org/2000/svg" xmlns:xlink="http://www.w3.org/1999/xlink" x="0px" y="0px"
	 viewBox="0 0 24 20" enable-background="new 0 0 24 20" xml:space="preserve">
<g>
	<g>
		<path fill="#979797" d="M23.8,8.5c-0.2-0.1-0.4-0.2-0.6-0.1l-4.2,0.9l-0.3-0.1c0,0.1-0.1,0.2-0.1,0.2c-0.1,0.2-0.1,0.3-0.2,0.5
			c-0.2,0.4-0.3,0.8-0.5,1.1l-2.6,7.5l-6-3.3l3-3c-0.2-0.4-0.4-0.8-0.6-1.2l-3.9,3.9l-3.5,1.9l5.7-5.7l1.6-0.5
			c-0.1-0.2-0.2-0.5-0.3-0.7C11.1,9.7,11,9.6,11,9.4L9.2,10c-0.1,0-0.2,0.1-0.3,0.2L0.2,19c-0.2,0.2-0.2,0.6,0,0.8
			C0.3,19.9,0.5,20,0.7,20c0.1,0,0.2,0,0.4-0.1L8.1,16l7.1,3.9c0,0,0.1,0,0.1,0c0,0,0,0,0.1,0c0.1,0,0.1,0,0.2,0h0c0,0,0,0,0,0
			c0.1,0,0.1,0,0.2,0c0,0,0,0,0.1,0c0,0,0.1,0,0.1,0c0,0,0,0,0,0l7.4-4.1c0.2-0.1,0.3-0.3,0.3-0.5L24,9C24,8.8,23.9,8.6,23.8,8.5z
			 M22.4,15L16.8,18l2.7-7.7l3.1-0.6L22.4,15z M14.7,13.9c1.8,0,4.6-8.4,4.6-9.8c0-2.3-2.1-4.1-4.6-4.1c-2.5,0-4.6,1.8-4.6,4.1
			C10.2,5.6,12.9,13.9,14.7,13.9z M12.5,4.1c0-1.1,1-2,2.2-2C16,2.1,17,3,17,4.1c0,1.1-1,2-2.2,2C13.5,6.1,12.5,5.2,12.5,4.1z"/>
	</g>
</g>
</svg>
