<?xml version="1.0" encoding="utf-8"?>
<!-- Generator: Adobe Illustrator 16.0.2, SVG Export Plug-In . SVG Version: 6.00 Build 0)  -->
<!DOCTYPE svg PUBLIC "-//W3C//DTD SVG 1.1//EN" "http://www.w3.org/Graphics/SVG/1.1/DTD/svg11.dtd">
<svg version="1.1" id="Layer_1" xmlns="http://www.w3.org/2000/svg" xmlns:xlink="http://www.w3.org/1999/xlink" x="0px" y="0px"
	 width="63px" height="35px" viewBox="0 0 63 35" enable-background="new 0 0 63 35" xml:space="preserve">
<path fill-rule="evenodd" clip-rule="evenodd" fill="#1BA1C1" d="M17.5,0H63v35H17.5C7.835,35,0,27.165,0,17.5
	C0,7.835,7.835,0,17.5,0z"/>
<g>
	<g>
		<path fill="#FFFFFF" d="M25.979,17.909h-4.77c-0.143,0-0.259,0.111-0.259,0.249v4.596c0,0.138,0.116,0.25,0.259,0.25h4.77
			c0.144,0,0.259-0.112,0.259-0.25v-4.596C26.237,18.021,26.122,17.909,25.979,17.909z M25.721,22.505h-4.253v-4.098h4.253V22.505z
			 M43.683,17.292c0.074-0.067,0.113-0.159,0.114-0.25c0.271-0.611,0.559-1.22,0.87-1.808c0.331-0.621,0.688-1.217,1.079-1.761
			c0.386-0.536,0.871-0.984,1.355-1.433c0.513-0.475,1.025-0.949,1.445-1.532l1.612-2.237L49.605,7.9l-1.612,2.238
			c-0.387,0.535-0.871,0.984-1.356,1.432c-0.512,0.475-1.024,0.949-1.444,1.532c-0.414,0.575-0.785,1.192-1.126,1.835
			c-0.318,0.598-0.612,1.221-0.891,1.85c-0.14,0.133-0.144,0.351-0.009,0.49C43.306,17.418,43.536,17.425,43.683,17.292z
			 M40.095,22.75l2.509,1.678l0.394-0.546l-2.509-1.679L40.095,22.75z M40.685,21.93l2.51,1.679l9.722-13.493l-2.509-1.678
			L40.685,21.93z M50.821,9.408l-9.037,12.543l-0.283-0.189l9.037-12.543L50.821,9.408z M39.237,25.521
			c-0.073,0.039-0.145,0.08-0.202,0.119c-0.136,0.093-0.234,0.193-0.404,0.291c-0.639,0.361-1.532,0.366-2.179,0.249
			c-0.222-0.041-0.466-0.269-0.736-0.511c-0.351-0.313-0.741-0.666-1.275-0.809c-0.548-0.146-1.15,0.019-1.736,0.179
			c-0.501,0.138-1.017,0.278-1.435,0.209c-0.698-0.117-1.501-1.438-1.507-2.479c-0.002-0.25-0.001-1.257-0.001-2.367h0.001v-3.471
			c0-0.012,0-0.016,0-0.016v-0.001c0-0.275-0.23-0.499-0.517-0.499s-0.517,0.224-0.518,0.499c0,0.001,0,0.005,0,0.015
			c0,0.308-0.003,5.245,0,5.846c0.007,1.248,0.932,3.215,2.366,3.455c0.647,0.107,1.312-0.072,1.896-0.232
			c0.448-0.121,0.91-0.248,1.18-0.176c0.292,0.077,0.565,0.321,0.855,0.58c0.366,0.326,0.745,0.664,1.261,0.757
			c0.172,0.032,0.529,0.085,0.969,0.085c0.583,0,1.313-0.094,1.948-0.455c0.047,0.001,0.095-0.011,0.139-0.04
			c1.022-0.684,2.043-1.364,3.064-2.048c-0.836-0.56-1.672-1.119-2.509-1.678C39.678,23.857,39.458,24.688,39.237,25.521z
			 M53.706,6.439c-0.527-0.354-1.258-0.226-1.624,0.281l-1.041,1.446l1.917,1.282l1.041-1.445
			C54.365,7.496,54.233,6.792,53.706,6.439z M31.717,18.022c0.101,0.097,0.232,0.146,0.365,0.146s0.265-0.049,0.366-0.146
			c0.201-0.193,0.201-0.51-0.001-0.705l-8.7-8.359c-0.202-0.193-0.528-0.193-0.73,0l-8.678,8.339
			c-0.203,0.194-0.203,0.511-0.001,0.705c0.201,0.194,0.528,0.194,0.73,0.001l8.313-7.988L31.717,18.022z M17.869,16.416
			c-0.286,0-0.518,0.224-0.518,0.499v8.97c0,0.275,0.231,0.498,0.518,0.498c0.285,0,0.517-0.223,0.517-0.498v-8.97
			C18.386,16.64,18.154,16.416,17.869,16.416z"/>
	</g>
</g>
</svg>
