<?xml version="1.0" encoding="utf-8"?>
<!-- Generator: Adobe Illustrator 16.0.2, SVG Export Plug-In . SVG Version: 6.00 Build 0)  -->
<!DOCTYPE svg PUBLIC "-//W3C//DTD SVG 1.1//EN" "http://www.w3.org/Graphics/SVG/1.1/DTD/svg11.dtd">
<svg version="1.1" id="Layer_1" xmlns="http://www.w3.org/2000/svg" xmlns:xlink="http://www.w3.org/1999/xlink" x="0px" y="0px"
	 width="18px" height="18px" viewBox="0 0 18 18" enable-background="new 0 0 18 18" xml:space="preserve">
<path fill-rule="evenodd" clip-rule="evenodd" fill="#FFFFFF" d="M18.004,17.094l-0.911,0.91l-4.376-4.375
	c-1.347,1.141-3.086,1.83-4.989,1.83c-4.271,0-7.731-3.461-7.731-7.731c0-4.27,3.461-7.731,7.731-7.731s7.731,3.462,7.731,7.731
	c0,1.903-0.69,3.643-1.831,4.989L18.004,17.094z M14.171,7.728c0-3.559-2.885-6.443-6.443-6.443S1.285,4.169,1.285,7.728
	c0,3.558,2.884,6.442,6.442,6.442S14.171,11.285,14.171,7.728z"/>
</svg>
